<?xml version="1.0" encoding="UTF-8"?><svg id="Layer_1" xmlns="http://www.w3.org/2000/svg" xmlns:xlink="http://www.w3.org/1999/xlink" viewBox="0 0 598.89 150.45"><defs><style>.cls-1{fill:url(#NEON-2);}.cls-1,.cls-2{stroke-width:0px;}.cls-2{fill:url(#linear-gradient);}</style><linearGradient id="linear-gradient" x1="341.24" y1="78.79" x2="390.17" y2="78.79" gradientUnits="userSpaceOnUse"><stop offset="0" stop-color="#2de2e6"/><stop offset=".5" stop-color="#f9c80e"/><stop offset="1" stop-color="#fd1d53"/></linearGradient><linearGradient id="NEON-2" x1="115.39" y1="-108.93" x2="483.65" y2="259.33" gradientUnits="userSpaceOnUse"><stop offset=".2" stop-color="#1adc38"/><stop offset="1" stop-color="#2eadda"/></linearGradient></defs><g id="FULL_LOGO"><g id="O_Bars"><path class="cls-2" d="M387.02,90.71c-1.74,0-3.15-1.41-3.15-3.15v-43.77c0-1.74,1.41-3.15,3.15-3.15s3.15,1.41,3.15,3.15v43.77c0,1.74-1.41,3.15-3.15,3.15Z"/><path class="cls-2" d="M366.46,116.94c-1.74,0-3.15-1.41-3.15-3.15v-43.77c0-1.74,1.41-3.15,3.15-3.15s3.15,1.41,3.15,3.15v43.77c0,1.74-1.41,3.15-3.15,3.15Z"/><path class="cls-2" d="M344.39,102.37c-1.74,0-3.15-1.41-3.15-3.15v-43.77c0-1.74,1.41-3.15,3.15-3.15s3.15,1.41,3.15,3.15v43.77c0,1.74-1.41,3.15-3.15,3.15Z"/></g><g id="NEON"><path id="N" class="cls-1" d="M493.05,27.21v114c0,3.81-2.99,6.8-6.8,6.8-3.54,0-6.8-3.27-6.8-6.8V9.25c0-3.81,3.27-6.8,6.53-6.8,4.08,0,5.99.82,7.34,2.72,18.23,24.21,62.03,78.9,91.96,118.08V9.25c0-3.81,3.26-6.8,6.8-6.8,3.81,0,6.8,2.99,6.8,6.8v131.96c0,3.81-2.99,6.8-6.53,6.8-3.81,0-5.99-.82-7.34-2.72-25.03-33.47-67.48-86.52-91.96-118.08Z"/><path id="O" class="cls-1" d="M366.24,150.45c-41.63,0-71.01-32.65-71.01-74.27,0-45.44,28.84-76.18,71.01-76.18,38.64,0,69.92,30.74,69.92,75.36s-25.85,75.09-69.92,75.09ZM366.24,136.85c35.91,0,56.32-27.21,56.32-61.49s-24.76-61.76-56.32-61.76c-34.55,0-57.4,25.85-57.4,62.58,0,33.47,23.4,60.67,57.4,60.67Z"/><path id="E" class="cls-1" d="M172.79,9.25c0-3.54,2.72-6.8,5.99-6.8h76.18c3.81,0,6.8,2.99,6.8,6.8,0,3.54-2.99,6.8-6.8,6.8h-68.56v47.34h56.87c3.81,0,6.8,2.99,6.8,6.8,0,3.54-2.99,6.8-6.8,6.8h-56.87v57.41h69.11c3.81,0,6.8,2.99,6.8,6.8,0,3.54-2.99,6.8-6.8,6.8h-75.91c-3.54,0-6.8-3.27-6.8-6.8V9.25Z"/><path id="N-2" class="cls-1" d="M13.6,27.21v114c0,3.81-2.99,6.8-6.8,6.8-3.54,0-6.8-3.27-6.8-6.8V9.25C0,5.44,3.27,2.45,6.53,2.45c4.08,0,5.99.82,7.34,2.72,18.23,24.21,62.03,78.9,91.96,118.08V9.25c0-3.81,3.27-6.8,6.8-6.8,3.81,0,6.8,2.99,6.8,6.8v131.96c0,3.81-2.99,6.8-6.53,6.8-3.81,0-5.99-.82-7.35-2.72C80.53,111.82,38.09,58.77,13.6,27.21Z"/></g></g></svg>